<svg width="24" height="22" viewBox="0 0 24 22" fill="none" xmlns="http://www.w3.org/2000/svg">
<path opacity="0.98" fill-rule="evenodd" clip-rule="evenodd" d="M17.3892 4.13483C19.3054 4.03605 20.6302 4.86665 21.3635 6.62666C21.8228 8.28463 21.4003 9.66661 20.096 10.7725C18.9764 11.5353 17.7734 11.6928 16.4869 11.2451C15.3623 10.7501 14.6318 9.91235 14.2956 8.73183C10.801 8.739 7.30637 8.73183 3.81179 8.71034C3.33331 8.51963 3.12564 8.16876 3.18877 7.65776C3.25956 7.272 3.48156 7.02136 3.85475 6.90591C7.33511 6.89874 10.8154 6.87726 14.2956 6.84147C14.796 5.32386 15.8272 4.42164 17.3892 4.13483ZM17.4751 6.02518C18.2793 5.91816 18.9166 6.19024 19.3871 6.84147C19.8934 7.84499 19.7001 8.68276 18.807 9.35478C17.7034 9.8605 16.8369 9.59555 16.2076 8.55998C15.854 7.31952 16.2765 6.47457 17.4751 6.02518Z" fill="white" fill-opacity="0.6"/>
<path opacity="0.98" fill-rule="evenodd" clip-rule="evenodd" d="M6.30453 11.484C8.09494 11.344 9.40542 12.0601 10.236 13.6321C10.3222 13.8263 10.3866 14.0268 10.4293 14.2336C13.9239 14.2264 17.4185 14.2336 20.9131 14.255C21.4525 14.4978 21.6458 14.906 21.4931 15.4795C21.3817 15.7771 21.174 15.9705 20.8701 16.0595C17.3898 16.0666 13.9095 16.0881 10.4293 16.1239C9.75392 18.0231 8.40761 18.9182 6.39047 18.8091C4.90466 18.5693 3.89495 17.7459 3.36134 16.3387C2.92849 14.8262 3.26506 13.5158 4.37105 12.4076C4.92897 11.9141 5.57347 11.6061 6.30453 11.484ZM6.64826 13.3313C7.70421 13.3209 8.37018 13.8221 8.6462 14.835C8.72715 15.8992 8.26169 16.5937 7.24979 16.9187C6.4446 17.0468 5.80728 16.7819 5.33779 16.1239C4.84548 15.1649 5.01018 14.3415 5.8319 13.6536C6.09417 13.5068 6.36628 13.3994 6.64826 13.3313Z" fill="white" fill-opacity="0.6"/>
</svg>
