<svg width="40" height="40" viewBox="0 0 40 40" fill="none" xmlns="http://www.w3.org/2000/svg">
<g clip-path="url(#clip0_207_44547)">
<path fill-rule="evenodd" clip-rule="evenodd" d="M20.0191 6.1876C21.2889 6.1876 21.6589 6.19805 21.9894 6.2774C22.321 6.35701 22.638 6.48833 22.9288 6.66652C23.2187 6.84413 23.4877 7.09839 24.3855 7.99622L29.5664 13.1771C30.4642 14.0749 30.7185 14.3439 30.8961 14.6338C31.0743 14.9246 31.2056 15.2416 31.2852 15.5732C31.3646 15.9037 31.375 16.2737 31.375 17.5435V27.6376C31.375 29.0295 31.3737 29.9758 31.314 30.7072C31.2558 31.4196 31.1503 31.7839 31.0208 32.0381C30.7092 32.6496 30.212 33.1468 29.6005 33.4584C29.3463 33.5879 28.982 33.6934 28.2696 33.7516C27.5382 33.8113 26.5919 33.8126 25.2 33.8126H14.8C13.4081 33.8126 12.4618 33.8113 11.7304 33.7516C11.018 33.6934 10.6537 33.5879 10.3995 33.4584C9.78801 33.1468 9.29082 32.6496 8.97923 32.0381C8.84974 31.7839 8.74423 31.4196 8.68602 30.7072C8.62627 29.9758 8.625 29.0295 8.625 27.6376V12.3626C8.625 10.9707 8.62627 10.0244 8.68602 9.29304C8.74423 8.58061 8.84974 8.21628 8.97923 7.96213C9.29082 7.35061 9.78801 6.85342 10.3995 6.54183C10.6537 6.41234 11.018 6.30683 11.7304 6.24862C12.4618 6.18887 13.4081 6.1876 14.8 6.1876H20.0191ZM22.7481 3.1172C21.9962 2.93669 21.2166 2.93706 20.1847 2.93755L20.0191 2.9376H14.8L14.7329 2.9376C13.4248 2.93758 12.3452 2.93756 11.4658 3.00942C10.5524 3.08405 9.71273 3.24421 8.92406 3.64606C7.70101 4.26924 6.70664 5.26361 6.08346 6.48666C5.68161 7.27533 5.52145 8.11498 5.44682 9.02839C5.37496 9.90782 5.37498 10.9874 5.375 12.2955V12.2955V12.3626V27.6376V27.7047V27.7047C5.37498 29.0128 5.37496 30.0924 5.44682 30.9718C5.52145 31.8852 5.68161 32.7249 6.08346 33.5135C6.70664 34.7366 7.70101 35.731 8.92406 36.3541C9.71273 36.756 10.5524 36.9162 11.4658 36.9908C12.3452 37.0626 13.4248 37.0626 14.7329 37.0626H14.8H25.2H25.2672C26.5752 37.0626 27.6548 37.0626 28.5342 36.9908C29.4476 36.9162 30.2873 36.756 31.0759 36.3541C32.299 35.731 33.2934 34.7366 33.9165 33.5135C34.3184 32.7249 34.4786 31.8852 34.5532 30.9718C34.625 30.0924 34.625 29.0128 34.625 27.7048V27.6376V17.5435L34.625 17.3779C34.6255 16.3461 34.6259 15.5664 34.4454 14.8145C34.2862 14.1513 34.0235 13.5172 33.6672 12.9357C33.2631 12.2764 32.7116 11.7253 31.9816 10.996L31.8645 10.879L26.6836 5.69812L26.5666 5.58102C25.8373 4.85103 25.2862 4.29946 24.627 3.89544C24.0454 3.53905 23.4113 3.27643 22.7481 3.1172ZM13.5 20.0001C12.6025 20.0001 11.875 20.7276 11.875 21.6251C11.875 22.5226 12.6025 23.2501 13.5 23.2501H23.25C24.1475 23.2501 24.875 22.5226 24.875 21.6251C24.875 20.7276 24.1475 20.0001 23.25 20.0001H13.5ZM13.5 26.5001C12.6025 26.5001 11.875 27.2276 11.875 28.1251C11.875 29.0226 12.6025 29.7501 13.5 29.7501H26.5C27.3975 29.7501 28.125 29.0226 28.125 28.1251C28.125 27.2276 27.3975 26.5001 26.5 26.5001H13.5Z" fill="white" fill-opacity="0.5"/>
</g>
<defs>
<clipPath id="clip0_207_44547">
<rect width="39" height="39" fill="white" transform="translate(0.5 0.5)"/>
</clipPath>
</defs>
</svg>
