<svg width="17" height="16" viewBox="0 0 17 16" fill="none" xmlns="http://www.w3.org/2000/svg">
<path opacity="0.923" fill-rule="evenodd" clip-rule="evenodd" d="M6.81394 0.42208C7.16694 0.41648 7.47944 0.525855 7.75144 0.750205C8.99209 2.06372 10.2212 3.38664 11.4389 4.71896C12.2723 4.72936 13.1056 4.7398 13.9389 4.75021C14.3604 4.83833 14.6156 5.09355 14.7046 5.51583C14.7549 5.89452 14.609 6.16533 14.2671 6.32833C14.2445 8.1618 14.2497 9.99514 14.2827 11.8283C14.5555 11.7831 14.6544 11.8873 14.5796 12.1408C14.5087 12.1863 14.4306 12.2124 14.3452 12.219C14.4501 12.4607 14.5491 12.7055 14.6421 12.9533C14.9487 13.0192 15.256 13.087 15.5639 13.1565C15.5835 13.1799 15.5991 13.206 15.6108 13.2346C15.6253 13.423 15.6149 13.6105 15.5796 13.7971C15.3528 13.9547 15.1289 14.1162 14.9077 14.2815C15.0002 14.5921 15.0367 14.9098 15.0171 15.2346C14.9112 15.3832 14.7705 15.4405 14.5952 15.4065C14.2964 15.2271 13.9943 15.0553 13.6889 14.8908C13.4039 15.0119 13.1227 15.1421 12.8452 15.2815C12.7361 15.3314 12.6267 15.3366 12.5171 15.2971C12.4871 15.244 12.4715 15.1867 12.4702 15.1252C12.5351 14.7797 12.608 14.436 12.6889 14.094C12.4479 13.826 12.2031 13.5603 11.9546 13.2971C11.8769 13.1347 11.9238 13.0253 12.0952 12.969C12.4351 12.9417 12.7736 12.9053 13.1108 12.8596C13.2524 12.6548 13.3826 12.4412 13.5014 12.219C12.7827 12.1981 12.0639 12.1981 11.3452 12.219C11.081 12.4102 10.8258 12.6133 10.5796 12.8283C10.5915 13.329 10.6123 13.829 10.6421 14.3283C10.5645 14.4635 10.4551 14.5572 10.3139 14.6096C9.79375 14.3573 9.28856 14.076 8.79831 13.7658C8.29591 14.0222 7.7855 14.2618 7.26706 14.4846C7.1365 14.479 7.06878 14.4113 7.06394 14.2815C7.19128 13.7361 7.30066 13.1892 7.39206 12.6408C7.27275 12.4913 7.14253 12.3507 7.00144 12.219C6.24081 12.1929 5.48037 12.1981 4.72019 12.2346C4.83647 12.5265 4.96147 12.813 5.09519 13.094C5.35722 13.138 5.61762 13.1901 5.87644 13.2502C5.92806 13.2961 5.95931 13.3534 5.97019 13.4221C5.91003 13.5955 5.86316 13.7726 5.82956 13.9533C5.646 14.1266 5.45328 14.288 5.25144 14.4377C5.31928 14.6727 5.37137 14.9123 5.40769 15.1565C5.34159 15.3424 5.21659 15.4726 5.03269 15.5471C4.69059 15.3666 4.35203 15.1791 4.01706 14.9846C3.67857 15.153 3.33482 15.3092 2.98581 15.4533C2.87644 15.4273 2.80873 15.3596 2.78269 15.2502C2.86136 14.8939 2.9447 14.5397 3.03269 14.1877C2.77748 13.9117 2.52227 13.6356 2.26706 13.3596C2.23197 13.2516 2.25801 13.163 2.34519 13.094C2.71918 13.0441 3.09418 13.0024 3.47019 12.969C3.60957 12.7267 3.74498 12.4819 3.87644 12.2346C3.7422 12.2087 3.60678 12.1931 3.47019 12.1877C3.34507 12.114 3.31903 12.0151 3.39206 11.8908C3.39292 9.95317 3.37209 8.01567 3.32956 6.07833C3.19868 6.18799 3.04764 6.25049 2.87644 6.26583C2.80779 6.25496 2.7505 6.22371 2.70456 6.17208C2.68373 5.65124 2.68373 5.13042 2.70456 4.60958C3.97019 3.26061 5.23581 1.91166 6.50144 0.562705C6.60153 0.500114 6.70569 0.453239 6.81394 0.42208ZM6.81394 0.82833C6.87044 0.828061 6.92253 0.843686 6.97019 0.875205C8.24522 2.24403 9.53169 3.60339 10.8296 4.95333C10.7948 5.1828 10.7218 5.40155 10.6108 5.60958C9.47053 4.41827 8.3195 3.23599 7.15769 2.0627C6.97472 1.97358 6.78722 1.96316 6.59519 2.03145C6.45559 2.13974 6.32541 2.25953 6.20456 2.39083C5.17441 3.53561 4.13275 4.67105 3.07956 5.79708C3.05873 5.45333 3.05873 5.10958 3.07956 4.76583C4.31791 3.44371 5.56272 2.13122 6.81394 0.82833ZM6.81394 2.35958C6.88984 2.36224 6.95234 2.39349 7.00144 2.45333C8.054 3.53192 9.10087 4.61524 10.1421 5.70333C10.1827 7.51558 10.1983 9.32808 10.1889 11.1408C10.128 11.1494 10.0811 11.1286 10.0483 11.0783C9.8735 10.6476 9.71725 10.2101 9.57956 9.76583C9.41072 9.68889 9.24928 9.60033 9.09519 9.50021C9.0025 9.47224 8.91916 9.48786 8.84519 9.54708C8.71081 9.80108 8.57019 10.0511 8.42331 10.2971C8.41291 9.77624 8.40247 9.25542 8.39206 8.73458C8.28969 8.37177 8.05531 8.1478 7.68894 8.06271C7.17853 8.04186 6.66809 8.04186 6.15769 8.06271C5.79106 8.14808 5.55669 8.37205 5.45456 8.73458C5.43894 9.76577 5.43372 10.797 5.43894 11.8283C4.88684 11.8283 4.33478 11.8283 3.78269 11.8283C3.76603 9.77574 3.75041 7.72367 3.73581 5.67208C4.75856 4.56096 5.78459 3.45677 6.81394 2.35958ZM11.2202 5.14083C12.1369 5.13561 13.0536 5.14083 13.9702 5.15646C14.1723 5.3138 14.2192 5.50649 14.1108 5.73458C14.0593 5.77261 14.002 5.79864 13.9389 5.81271C12.9492 5.83874 11.9596 5.83355 10.9702 5.79708C11.0538 5.57742 11.1371 5.35867 11.2202 5.14083ZM10.5639 6.10958C10.6348 6.13842 10.7077 6.16446 10.7827 6.18771C11.7722 6.20333 12.7618 6.20855 13.7514 6.20333C13.7514 8.07833 13.7514 9.95333 13.7514 11.8283C13.022 11.8387 12.2928 11.8283 11.5639 11.7971C11.5544 11.6953 11.5492 11.5912 11.5483 11.4846C11.5387 11.4593 11.5231 11.4385 11.5014 11.4221C11.2043 11.3361 10.9022 11.2736 10.5952 11.2346C10.5696 9.52636 10.5592 7.81805 10.5639 6.10958ZM11.5014 7.92208C11.8882 7.91902 12.2736 7.93986 12.6577 7.98458C12.6883 8.35799 12.6987 8.73299 12.6889 9.10958C12.2931 9.10958 11.8973 9.10958 11.5014 9.10958C11.5014 8.71374 11.5014 8.31792 11.5014 7.92208ZM6.25144 8.42208C6.69947 8.41686 7.14741 8.42208 7.59519 8.43771C7.80544 8.49167 7.94606 8.62189 8.01706 8.82833C8.03791 9.54708 8.03791 10.2658 8.01706 10.9846C7.48344 11.0531 6.94697 11.1104 6.40769 11.1565C6.23931 11.245 6.21328 11.3647 6.32956 11.5158C6.42853 11.6148 6.52747 11.7137 6.62644 11.8127C6.35581 11.8283 6.08497 11.8335 5.81394 11.8283C5.80872 10.8283 5.81394 9.82827 5.82956 8.82833C5.90616 8.62146 6.04678 8.48602 6.25144 8.42208ZM8.97019 10.1408C9.17112 10.5585 9.36903 10.9803 9.56394 11.4065C10.0207 11.5069 10.479 11.6006 10.9389 11.6877C10.6093 12.006 10.2707 12.3132 9.92331 12.6096C9.94963 13.0906 9.99128 13.5698 10.0483 14.0471C9.65028 13.8012 9.24403 13.5721 8.82956 13.3596C8.39634 13.5488 7.96403 13.7311 7.53269 13.9065C7.6615 13.4499 7.75003 12.9864 7.79831 12.5158C7.50256 12.168 7.19528 11.8294 6.87644 11.5002C7.34622 11.4556 7.81497 11.4035 8.28269 11.344C8.51897 10.9464 8.74813 10.5454 8.97019 10.1408ZM13.7827 12.4846C13.9131 12.7286 14.0381 12.9786 14.1577 13.2346C14.4347 13.3161 14.7159 13.3838 15.0014 13.4377C14.7872 13.6207 14.5841 13.8135 14.3921 14.0158C14.3948 14.2777 14.4209 14.5381 14.4702 14.7971C14.4598 14.8179 14.4493 14.8387 14.4389 14.8596C14.2002 14.7116 13.9554 14.5762 13.7046 14.4533C13.4503 14.5596 13.2003 14.6742 12.9546 14.7971C13.0062 14.5071 13.0478 14.2155 13.0796 13.9221C12.903 13.7195 12.7207 13.5216 12.5327 13.3283C12.828 13.2973 13.1196 13.2504 13.4077 13.1877C13.5454 12.9591 13.6704 12.7247 13.7827 12.4846ZM4.12644 12.5783C4.25025 12.8081 4.35962 13.0477 4.45456 13.2971C4.48059 13.3231 4.50666 13.3492 4.53269 13.3752C4.80278 13.4313 5.07359 13.4834 5.34519 13.5315C5.14206 13.7137 4.93894 13.8961 4.73581 14.0783C4.73375 14.3839 4.75459 14.686 4.79831 14.9846C4.55984 14.8237 4.30984 14.6883 4.04831 14.5783C3.79179 14.6518 3.547 14.756 3.31394 14.8908C3.31686 14.6331 3.35853 14.3779 3.43894 14.1252C3.42331 14.0783 3.40769 14.0315 3.39206 13.9846C3.20875 13.8117 3.03687 13.6294 2.87644 13.4377C3.15707 13.394 3.43832 13.3523 3.72019 13.3127C3.87619 13.0788 4.01161 12.834 4.12644 12.5783Z" fill="white" fill-opacity="0.6"/>
<path opacity="0.949" fill-rule="evenodd" clip-rule="evenodd" d="M6.53516 4.64163C7.23753 4.61982 7.53441 4.95316 7.42578 5.64163C7.22422 6.0355 6.90653 6.17613 6.47266 6.0635C6.15878 5.91572 5.99213 5.66572 5.97266 5.3135C6.01966 4.96979 6.20716 4.74585 6.53516 4.64163Z" fill="white" fill-opacity="0.6"/>
<path opacity="0.931" fill-rule="evenodd" clip-rule="evenodd" d="M11.2207 7.545C11.8047 7.537 12.3881 7.55263 12.9707 7.59188C12.9863 7.6075 13.002 7.62313 13.0176 7.63875C13.055 8.16759 13.081 8.69884 13.0957 9.2325C13.1033 9.32669 13.072 9.40481 13.002 9.46688C12.3978 9.48772 11.7936 9.48772 11.1895 9.46688C11.1738 9.45125 11.1582 9.43563 11.1426 9.42C11.1217 8.82625 11.1217 8.2325 11.1426 7.63875C11.1752 7.61147 11.2013 7.58022 11.2207 7.545ZM11.502 7.92C11.502 8.31584 11.502 8.71166 11.502 9.1075C11.8978 9.1075 12.2936 9.1075 12.6895 9.1075C12.6992 8.73091 12.6888 8.35591 12.6582 7.9825C12.2741 7.93778 11.8887 7.91694 11.502 7.92Z" fill="white" fill-opacity="0.6"/>
</svg>
