<svg width="20" height="20" viewBox="0 0 20 20" fill="none" xmlns="http://www.w3.org/2000/svg">
<path d="M10 17.75C5.72643 17.75 2.25 14.2736 2.25 10C2.25 5.72643 5.72643 2.25 10 2.25C14.2736 2.25 17.75 5.72643 17.75 10C17.75 14.2736 14.2736 17.75 10 17.75ZM10 3.35714C6.33536 3.35714 3.35714 6.33536 3.35714 10C3.35714 13.6646 6.33536 16.6429 10 16.6429C13.6646 16.6429 16.6429 13.6646 16.6429 10C16.6429 6.33536 13.6646 3.35714 10 3.35714Z" fill="#1C1C1C"/>
<path d="M12.214 12.7667C12.1144 12.7667 12.0147 12.7446 11.9262 12.6892L9.1583 11.0285C9.07669 10.9788 9.00933 10.9089 8.96277 10.8255C8.91621 10.742 8.89203 10.648 8.89259 10.5525V6.12388C8.89259 5.81388 9.13616 5.57031 9.44616 5.57031C9.75616 5.57031 9.99973 5.81388 9.99973 6.12388V10.2425L12.5019 11.7371C12.6049 11.8003 12.6846 11.8953 12.7288 12.0078C12.773 12.1203 12.7792 12.2442 12.7467 12.3606C12.7142 12.477 12.6445 12.5796 12.5484 12.6529C12.4523 12.7262 12.3349 12.7662 12.214 12.7667Z" fill="#1C1C1C"/>
</svg>
